<svg xmlns="http://www.w3.org/2000/svg" viewBox="0 0 256 256" fill="none">
  <!-- Background circle -->
  <circle cx="128" cy="128" r="120" fill="#4CAF50"/>
  <circle cx="128" cy="128" r="110" fill="#43A047"/>

  <!-- Clipboard body -->
  <rect x="68" y="58" width="104" height="140" rx="10" fill="white" opacity="0.95"/>

  <!-- Clipboard clip -->
  <rect x="96" y="46" width="48" height="24" rx="6" fill="#2E7D32"/>
  <circle cx="120" cy="52" r="6" fill="#43A047"/>

  <!-- Checkmark line 1 -->
  <line x1="88" y1="100" x2="100" y2="112" stroke="#4CAF50" stroke-width="7" stroke-linecap="round"/>
  <line x1="100" y1="112" x2="118" y2="90" stroke="#4CAF50" stroke-width="7" stroke-linecap="round"/>
  <line x1="126" y1="101" x2="156" y2="101" stroke="#9E9E9E" stroke-width="5" stroke-linecap="round"/>

  <!-- Checkmark line 2 -->
  <line x1="88" y1="132" x2="100" y2="144" stroke="#4CAF50" stroke-width="7" stroke-linecap="round"/>
  <line x1="100" y1="144" x2="118" y2="122" stroke="#4CAF50" stroke-width="7" stroke-linecap="round"/>
  <line x1="126" y1="133" x2="156" y2="133" stroke="#9E9E9E" stroke-width="5" stroke-linecap="round"/>

  <!-- Empty checkbox line 3 -->
  <rect x="84" y="155" width="20" height="20" rx="4" stroke="#BDBDBD" stroke-width="4" fill="none"/>
  <line x1="126" y1="165" x2="156" y2="165" stroke="#BDBDBD" stroke-width="5" stroke-linecap="round"/>

  <!-- Small clock overlay (bottom-right) -->
  <circle cx="176" cy="176" r="30" fill="white" stroke="#2E7D32" stroke-width="5"/>
  <line x1="176" y1="176" x2="176" y2="158" stroke="#2E7D32" stroke-width="5" stroke-linecap="round"/>
  <line x1="176" y1="176" x2="190" y2="180" stroke="#2E7D32" stroke-width="4" stroke-linecap="round"/>
  <circle cx="176" cy="176" r="3" fill="#2E7D32"/>
</svg>
